<svg xmlns="http://www.w3.org/2000/svg" xmlns:xlink="http://www.w3.org/1999/xlink" width="52" height="52" viewBox="0 0 52 52" version="1.1">
  <title>
    Group
  </title>
  <desc>
    Created using Figma
  </desc>
  <g id="Canvas" transform="translate(-2019 357)">
    <g id="Group">
      <g id="Rectangle 3">
        <g id="Rectangle 3" filter="url(#filter0_d)">
          <use xlink:href="#path0_fill" transform="translate(2023 -357)" fill="#2D9CDB"/>
        </g>
      </g>
      <g id="ic_person">
        <g id="Icon 24px">
          <g id="Shape">
            <use xlink:href="#path1_fill" transform="matrix(0.999913 -0.0132098 0.0132098 0.999913 2036.9 -342.894)"/>
          </g>
        </g>
      </g>
    </g>
  </g>
  <defs>
    <filter id="filter0_d" filterUnits="userSpaceOnUse" x="2019" y="-357" width="52" height="52" color-interpolation-filters="sRGB">
      <feFlood flood-opacity="0" result="BackgroundImageFix"/>
      <feColorMatrix in="SourceAlpha" type="matrix" values="0 0 0 0 0 0 0 0 0 0 0 0 0 0 0 0 0 0 255 0"/>
      <feOffset dx="0" dy="4"/>
      <feGaussianBlur stdDeviation="2"/>
      <feColorMatrix type="matrix" values="0 0 0 0 0 0 0 0 0 0 0 0 0 0 0 0 0 0 0.25 0"/>
      <feBlend mode="normal" in2="BackgroundImageFix" result="effect1_dropShadow"/>
      <feBlend mode="normal" in="SourceGraphic" in2="effect1_dropShadow" result="shape"/>
    </filter>
    <path id="path0_fill" d="M0 8C0 3.58172 3.58172 0 8 0L36 0C40.4183 0 44 3.58172 44 8L44 36C44 40.4183 40.4183 44 36 44L8 44C3.58172 44 0 40.4183 0 36L0 8Z"/>
    <path id="path1_fill" fill-rule="evenodd" d="M8 8C10.21 8 12 6.21 12 4 12 1.79 10.21 0 8 0 5.79 0 4 1.79 4 4 4 6.21 5.79 8 8 8ZM8 10C5.33 10 0 11.34 0 14L0 16 16 16 16 14C16 11.34 10.67 10 8 10Z"/>
  </defs>
</svg>
